<?xml version="1.0" encoding="UTF-8"?>
<svg data-name="Layer 1" xmlns="http://www.w3.org/2000/svg" viewBox="0 0 77.07 87.94">
  <defs>
    <style>
      .cls-1 {
        fill: #f3f3f3;
        stroke: #9b9492;
        stroke-miterlimit: 10;
        stroke-width: 3px;
      }

      .cls-2 {
        fill: #f06;
      }
    </style>
  </defs>
  <polygon class="cls-1" points="73.8 2.63 75.52 85.37 3 45.49 73.8 2.63"/>
  <g>
    <path class="cls-2" d="M18.86,50.08c-.27,0-.47-.07-.61-.22s-.21-.35-.21-.62v-8.34c0-.28.07-.49.21-.62.14-.13.34-.2.61-.2s.45.07.59.2c.14.13.21.34.21.62v3.36h5.3v-3.36c0-.28.07-.49.21-.62.14-.13.34-.2.59-.2s.45.07.6.2c.15.13.22.34.22.62v8.34c0,.27-.07.47-.22.62-.15.15-.35.22-.6.22s-.45-.07-.59-.22-.21-.35-.21-.62v-3.66h-5.3v3.66c0,.27-.07.47-.2.62s-.33.22-.6.22Z"/>
    <path class="cls-2" d="M32.86,50.12c-.67,0-1.26-.13-1.79-.39-.53-.26-.94-.62-1.25-1.07-.31-.45-.46-.96-.46-1.52,0-.72.18-1.29.55-1.7s.97-.71,1.82-.88,2-.26,3.47-.26h.9v1.06h-.88c-1.08,0-1.93.05-2.55.15-.62.1-1.05.27-1.3.51s-.37.58-.37,1.02c0,.55.19.99.57,1.34.38.35.9.52,1.55.52.53,0,1-.13,1.41-.38.41-.25.73-.6.96-1.04.23-.44.35-.95.35-1.52v-2.28c0-.83-.17-1.42-.5-1.79-.33-.37-.88-.55-1.64-.55-.47,0-.93.06-1.4.18-.47.12-.96.31-1.48.58-.19.09-.35.12-.48.09-.13-.03-.24-.1-.32-.21s-.13-.23-.14-.37c-.01-.14.02-.28.09-.41.07-.13.19-.24.35-.32.59-.29,1.17-.51,1.74-.64.57-.13,1.12-.2,1.64-.2.84,0,1.53.14,2.08.41.55.27.95.69,1.22,1.24s.4,1.26.4,2.13v5.42c0,.27-.06.47-.19.62-.13.15-.31.22-.55.22-.25,0-.45-.07-.58-.22s-.2-.35-.2-.62v-1.56h.18c-.11.51-.31.94-.61,1.3s-.67.64-1.11.84-.93.3-1.48.3Z"/>
    <path class="cls-2" d="M43.78,50.12c-.69,0-1.37-.08-2.02-.24-.65-.16-1.21-.39-1.68-.7-.16-.11-.27-.23-.33-.36-.06-.13-.08-.27-.07-.4.01-.13.06-.25.15-.34.09-.09.21-.15.36-.17.15-.02.32.03.49.15.43.27.91.47,1.45.6.54.13,1.08.2,1.61.2.97,0,1.67-.14,2.08-.43s.62-.7.62-1.23-.18-.91-.53-1.18-.85-.4-1.49-.4h-1.74c-.21,0-.38-.06-.51-.17s-.19-.26-.19-.45.06-.33.19-.44.3-.16.51-.16h1.54c.57,0,1.03-.13,1.37-.4.34-.27.51-.63.51-1.1,0-.49-.18-.88-.54-1.17s-.97-.43-1.82-.43c-.52,0-1.02.06-1.5.17-.48.11-.94.3-1.38.55-.24.12-.44.16-.6.11-.16-.05-.28-.14-.36-.29-.08-.15-.09-.31-.04-.48s.18-.31.38-.42c.52-.31,1.09-.53,1.72-.68.63-.15,1.29-.22,1.98-.22,1.23,0,2.15.24,2.77.72.62.48.93,1.15.93,2.02,0,.61-.21,1.13-.64,1.56-.43.43-.99.68-1.7.76v-.26c.81.03,1.46.26,1.95.69.49.43.73,1.01.73,1.73,0,.87-.35,1.56-1.06,2.08-.71.52-1.75.78-3.14.78Z"/>
    <path class="cls-2" d="M53.58,50.12c-.67,0-1.26-.13-1.79-.39-.53-.26-.94-.62-1.25-1.07-.31-.45-.46-.96-.46-1.52,0-.72.18-1.29.55-1.7.37-.41.97-.71,1.82-.88s2-.26,3.47-.26h.9v1.06h-.88c-1.08,0-1.93.05-2.55.15-.62.1-1.05.27-1.3.51-.25.24-.37.58-.37,1.02,0,.55.19.99.57,1.34s.9.52,1.55.52c.53,0,1-.13,1.41-.38.41-.25.73-.6.96-1.04s.35-.95.35-1.52v-2.28c0-.83-.17-1.42-.5-1.79-.33-.37-.88-.55-1.64-.55-.47,0-.93.06-1.4.18s-.96.31-1.48.58c-.19.09-.35.12-.48.09-.13-.03-.24-.1-.32-.21s-.13-.23-.14-.37c-.01-.14.02-.28.09-.41.07-.13.19-.24.35-.32.59-.29,1.17-.51,1.74-.64.57-.13,1.12-.2,1.64-.2.84,0,1.53.14,2.08.41.55.27.95.69,1.22,1.24.27.55.4,1.26.4,2.13v5.42c0,.27-.06.47-.19.62-.13.15-.31.22-.55.22-.25,0-.45-.07-.58-.22-.13-.15-.2-.35-.2-.62v-1.56h.18c-.11.51-.31.94-.61,1.3-.3.36-.67.64-1.11.84-.44.2-.93.3-1.48.3Z"/>
    <path class="cls-2" d="M60.92,52.68c-.23,0-.4-.07-.52-.2-.12-.13-.18-.32-.18-.56v-2.48c0-.53.27-.8.8-.8h.96l-.96.34c.36-.48.65-1,.87-1.57.22-.57.38-1.2.49-1.91.11-.71.16-1.51.16-2.42v-1.94c0-.31.08-.54.24-.69.16-.15.39-.23.68-.23h5.04c.31,0,.54.08.69.23.15.15.23.38.23.69v8.24l-.74-.74h1.48c.25,0,.45.07.59.2.14.13.21.33.21.6v2.48c0,.51-.23.76-.7.76-.23,0-.4-.07-.52-.2-.12-.13-.18-.32-.18-.56v-1.98h-7.96v1.98c0,.51-.23.76-.68.76ZM62.8,48.64h5.08v-7.14h-3.9v1.86c0,1-.1,1.96-.3,2.89-.2.93-.49,1.72-.88,2.39Z"/>
  </g>
</svg>
