<?xml version="1.0" encoding="UTF-8"?>
<svg data-name="Layer 1" xmlns="http://www.w3.org/2000/svg" viewBox="0 0 77.07 87.94">
  <defs>
    <style>
      .cls-1 {
        fill: #f3f3f3;
        stroke: #9b9492;
        stroke-miterlimit: 10;
        stroke-width: 3px;
      }

      .cls-2 {
        fill: #f06;
      }
    </style>
  </defs>
  <polygon class="cls-1" points="73.8 2.63 75.52 85.37 3 45.49 73.8 2.63"/>
  <g>
    <path class="cls-2" d="M32.91,51.56c-.88,0-1.64-.23-2.27-.68s-1.06-1.06-1.27-1.82l.22-.22v1.84c0,.27-.07.47-.21.62-.14.15-.34.22-.59.22-.27,0-.47-.07-.6-.22-.13-.15-.2-.35-.2-.62v-12.72c0-.27.07-.47.2-.61.13-.14.33-.21.6-.21s.45.07.6.21c.15.14.22.34.22.61v5.96h-.24c.23-.75.65-1.34,1.28-1.78.63-.44,1.38-.66,2.26-.66s1.64.2,2.28.61c.64.41,1.14.99,1.49,1.74.35.75.53,1.65.53,2.69s-.18,1.92-.53,2.67c-.35.75-.85,1.34-1.5,1.75-.65.41-1.4.62-2.27.62ZM32.57,50.26c.61,0,1.14-.15,1.59-.44.45-.29.79-.72,1.04-1.28.25-.56.37-1.23.37-2.02,0-1.21-.27-2.14-.81-2.78-.54-.64-1.27-.96-2.19-.96-.6,0-1.13.14-1.58.43-.45.29-.8.71-1.05,1.26-.25.55-.37,1.24-.37,2.05,0,1.2.27,2.12.82,2.77s1.27.97,2.18.97Z"/>
    <path class="cls-2" d="M42.71,51.56c-.67,0-1.26-.13-1.79-.39-.53-.26-.94-.62-1.25-1.07-.31-.45-.46-.96-.46-1.52,0-.72.18-1.29.55-1.7s.97-.71,1.82-.88c.85-.17,2-.26,3.47-.26h.9v1.06h-.88c-1.08,0-1.93.05-2.55.15-.62.1-1.05.27-1.3.51-.25.24-.37.58-.37,1.02,0,.55.19.99.57,1.34s.9.52,1.55.52c.53,0,1-.13,1.41-.38.41-.25.73-.6.96-1.04s.35-.95.35-1.52v-2.28c0-.83-.17-1.42-.5-1.79-.33-.37-.88-.55-1.64-.55-.47,0-.93.06-1.4.18-.47.12-.96.31-1.48.58-.19.09-.35.12-.48.09s-.24-.1-.32-.21c-.08-.11-.13-.23-.14-.37-.01-.14.02-.28.09-.41.07-.13.19-.24.35-.32.59-.29,1.17-.51,1.74-.64.57-.13,1.12-.2,1.64-.2.84,0,1.53.14,2.08.41.55.27.95.69,1.22,1.24.27.55.4,1.26.4,2.13v5.42c0,.27-.06.47-.19.62-.13.15-.31.22-.55.22-.25,0-.45-.07-.58-.22-.13-.15-.2-.35-.2-.62v-1.56h.18c-.11.51-.31.94-.61,1.3-.3.36-.67.64-1.11.84-.44.2-.93.3-1.48.3Z"/>
    <path class="cls-2" d="M54.37,51.56c-.97,0-1.81-.21-2.52-.64-.71-.43-1.25-1.02-1.63-1.79s-.57-1.66-.57-2.67c0-.77.11-1.47.32-2.08.21-.61.53-1.14.94-1.57s.91-.76,1.49-.99c.58-.23,1.24-.34,1.97-.34.48,0,.98.07,1.5.22.52.15.99.4,1.42.76.13.09.22.21.26.34.04.13.04.26,0,.39-.04.13-.11.23-.2.32-.09.09-.21.14-.35.15-.14.01-.28-.03-.43-.14-.35-.27-.7-.45-1.06-.56-.36-.11-.71-.16-1.04-.16-.52,0-.97.08-1.36.25-.39.17-.71.4-.98.71-.27.31-.47.69-.61,1.14-.14.45-.21.98-.21,1.58,0,1.16.27,2.08.82,2.75.55.67,1.33,1.01,2.34,1.01.33,0,.68-.05,1.03-.16.35-.11.71-.29,1.07-.56.15-.11.29-.15.42-.14.13.01.25.06.34.15.09.09.16.2.19.33.03.13.03.26,0,.39s-.13.24-.26.33c-.43.35-.89.6-1.4.75s-1,.23-1.48.23Z"/>
    <path class="cls-2" d="M60.31,51.52c-.27,0-.47-.07-.6-.22-.13-.15-.2-.35-.2-.62v-12.72c0-.27.07-.47.2-.61.13-.14.33-.21.6-.21.25,0,.45.07.6.21.15.14.22.34.22.61v8.02h.04l4.1-3.92c.19-.17.35-.31.49-.4.14-.09.33-.14.57-.14.21,0,.38.06.5.17s.18.25.17.42c0,.17-.09.34-.25.53l-4.36,4.14v-.88l4.74,4.46c.19.19.28.37.28.54s-.06.32-.19.44c-.13.12-.29.18-.49.18-.24,0-.43-.05-.58-.15-.15-.1-.33-.25-.54-.45l-4.44-4.1h-.04v3.86c0,.56-.27.84-.82.84Z"/>
  </g>
</svg>
