<?xml version="1.0" encoding="UTF-8"?>
<svg id="Layer_1" data-name="Layer 1" xmlns="http://www.w3.org/2000/svg" viewBox="0 0 74.48 74.48">
  <defs>
    <style>
      .cls-1 {
        fill: #f3f3f3;
        stroke: #9b9492;
        stroke-miterlimit: 10;
        stroke-width: 3px;
      }

      .cls-2 {
        fill: #f06;
      }
    </style>
  </defs>
  <circle class="cls-1" cx="37.24" cy="37.24" r="35.74"/>
  <g>
    <path class="cls-2" d="M30.35,44.04c-.93,0-1.75-.12-2.45-.37-.7-.25-1.29-.61-1.77-1.1-.48-.49-.84-1.09-1.08-1.81-.24-.72-.36-1.55-.36-2.48v-7.82c0-.28.07-.49.21-.63.14-.14.34-.21.61-.21s.47.07.61.21c.14.14.21.35.21.63v7.74c0,1.47.34,2.56,1.02,3.29.68.73,1.68,1.09,3,1.09s2.31-.36,2.98-1.09,1-1.82,1-3.29v-7.74c0-.28.07-.49.22-.63.15-.14.35-.21.62-.21s.45.07.59.21c.14.14.21.35.21.63v7.82c0,1.24-.21,2.29-.63,3.16-.42.87-1.05,1.52-1.89,1.95-.84.43-1.88.65-3.1.65Z"/>
    <path class="cls-2" d="M39.93,47.6c-.27,0-.47-.07-.6-.21-.13-.14-.2-.34-.2-.61v-11.96c0-.27.07-.47.2-.61.13-.14.33-.21.58-.21.27,0,.47.07.61.21.14.14.21.34.21.61v1.9l-.22-.28c.21-.76.64-1.36,1.27-1.81.63-.45,1.39-.67,2.27-.67s1.62.2,2.27.61,1.15.99,1.5,1.74.53,1.65.53,2.69-.18,1.92-.53,2.67c-.35.75-.85,1.34-1.49,1.75-.64.41-1.4.62-2.28.62s-1.63-.22-2.26-.67c-.63-.45-1.05-1.04-1.28-1.79h.24v5.2c0,.27-.07.47-.22.61-.15.14-.35.21-.6.21ZM43.71,42.74c.61,0,1.14-.15,1.59-.44.45-.29.79-.72,1.04-1.28.25-.56.37-1.23.37-2.02,0-1.21-.27-2.14-.81-2.78-.54-.64-1.27-.96-2.19-.96-.6,0-1.13.14-1.58.43s-.8.71-1.05,1.26c-.25.55-.37,1.24-.37,2.05,0,1.2.27,2.12.82,2.77s1.27.97,2.18.97Z"/>
  </g>
</svg>