<?xml version="1.0" encoding="UTF-8"?>
<svg id="_Назад" data-name="Назад" xmlns="http://www.w3.org/2000/svg" viewBox="0 0 74.48 74.48">
  <defs>
    <style>
      .cls-1 {
        fill: #f3f3f3;
        stroke: #9b9492;
        stroke-miterlimit: 10;
        stroke-width: 3px;
      }

      .cls-2 {
        fill: #f06;
      }
    </style>
  </defs>
  <circle class="cls-1" cx="37.24" cy="37.24" r="35.74"/>
  <g>
    <path class="cls-2" d="M10.22,43.28c-.29,0-.52-.08-.67-.23-.15-.15-.23-.38-.23-.67v-12.3c0-.29.08-.52.23-.67.15-.15.38-.23.67-.23h4.74c.97,0,1.8.14,2.47.43.67.29,1.19.7,1.55,1.25s.54,1.21.54,2c0,.88-.26,1.61-.77,2.2-.51.59-1.21.97-2.09,1.16v-.28c1,.12,1.78.48,2.35,1.08.57.6.85,1.39.85,2.38,0,1.25-.41,2.21-1.22,2.88-.81.67-1.96,1-3.44,1h-4.98ZM10.92,35.48h3.8c1.04,0,1.83-.21,2.37-.64.54-.43.81-1.04.81-1.84s-.27-1.45-.81-1.87c-.54-.42-1.33-.63-2.37-.63h-3.8v4.98ZM10.92,41.96h4.12c1.07,0,1.87-.21,2.4-.64s.8-1.07.8-1.94-.27-1.53-.8-1.95-1.33-.63-2.4-.63h-4.12v5.16Z"/>
    <path class="cls-2" d="M23.54,43.28c-.27,0-.47-.07-.62-.22-.15-.15-.22-.35-.22-.62v-8.04c0-.27.07-.47.22-.62.15-.15.35-.22.62-.22h3.9c.77,0,1.41.1,1.9.29.49.19.86.48,1.1.86.24.38.36.85.36,1.41,0,.61-.22,1.13-.65,1.56-.43.43-1,.68-1.69.76v-.26c.83.03,1.48.26,1.95.7.47.44.71,1.01.71,1.72,0,.83-.31,1.48-.92,1.96-.61.48-1.48.72-2.6.72h-4.06ZM24.24,37.78h3.12c.6,0,1.07-.14,1.41-.42.34-.28.51-.67.51-1.16s-.17-.87-.51-1.14c-.34-.27-.81-.4-1.41-.4h-3.12v3.12ZM24.24,42.18h3.3c.65,0,1.16-.14,1.51-.43.35-.29.53-.7.53-1.23s-.18-.94-.53-1.22c-.35-.28-.86-.42-1.51-.42h-3.3v3.3Z"/>
    <path class="cls-2" d="M38.04,43.46c-1.03,0-1.91-.2-2.65-.61-.74-.41-1.31-.98-1.72-1.73s-.61-1.64-.61-2.68.2-1.9.6-2.65c.4-.75.95-1.34,1.65-1.77s1.51-.64,2.43-.64c.65,0,1.24.11,1.76.33.52.22.96.54,1.33.95.37.41.65.91.84,1.5.19.59.29,1.25.29,1.98,0,.21-.06.37-.18.47-.12.1-.29.15-.52.15h-6.96v-1.06h6.58l-.32.26c0-.72-.11-1.33-.32-1.83s-.52-.88-.93-1.15-.92-.4-1.53-.4c-.68,0-1.26.16-1.73.47-.47.31-.83.75-1.07,1.3-.24.55-.36,1.2-.36,1.93v.12c0,1.23.3,2.16.89,2.8.59.64,1.44.96,2.53.96.45,0,.9-.06,1.35-.18.45-.12.88-.32,1.31-.6.19-.12.36-.18.51-.17.15,0,.28.05.37.14.09.09.16.19.19.32.03.13.02.26-.04.41s-.18.27-.35.38c-.44.32-.96.57-1.56.74s-1.19.26-1.78.26Z"/>
    <path class="cls-2" d="M45.3,47.02c-.27,0-.47-.07-.6-.21-.13-.14-.2-.34-.2-.61v-11.96c0-.27.07-.47.2-.61.13-.14.33-.21.58-.21.27,0,.47.07.61.21.14.14.21.34.21.61v1.9l-.22-.28c.21-.76.64-1.36,1.27-1.81.63-.45,1.39-.67,2.27-.67s1.62.2,2.27.61c.65.41,1.15.99,1.5,1.74.35.75.53,1.65.53,2.69s-.18,1.92-.53,2.67c-.35.75-.85,1.34-1.49,1.75-.64.41-1.4.62-2.28.62s-1.63-.22-2.26-.67c-.63-.45-1.05-1.04-1.28-1.79h.24v5.2c0,.27-.07.47-.22.61-.15.14-.35.21-.6.21ZM49.08,42.16c.61,0,1.14-.15,1.59-.44.45-.29.79-.72,1.04-1.28.25-.56.37-1.23.37-2.02,0-1.21-.27-2.14-.81-2.78-.54-.64-1.27-.96-2.19-.96-.6,0-1.13.14-1.58.43s-.8.71-1.05,1.26c-.25.55-.37,1.24-.37,2.05,0,1.2.27,2.12.82,2.77s1.27.97,2.18.97Z"/>
    <path class="cls-2" d="M56.4,43.4c-.17,0-.33-.05-.46-.16-.13-.11-.2-.25-.21-.43,0-.18.08-.37.25-.57l3.5-4.4v.84l-3.28-4.1c-.17-.21-.26-.41-.25-.58s.08-.31.21-.42c.13-.11.29-.16.46-.16.2,0,.37.04.51.11.14.07.27.19.39.35l2.86,3.62h-.56l2.88-3.62c.12-.16.25-.28.38-.35s.3-.11.5-.11c.19,0,.34.05.47.16.13.11.19.25.2.43s-.08.38-.25.59l-3.26,4.04v-.74l3.5,4.34c.16.2.24.39.23.57,0,.18-.08.32-.21.43-.13.11-.29.16-.48.16s-.35-.04-.49-.11c-.14-.07-.28-.19-.41-.35l-3.08-3.88h.58l-3.08,3.88c-.12.15-.25.26-.39.34s-.31.12-.51.12Z"/>
  </g>
</svg>